<svg width="648" height="644" xmlns="http://www.w3.org/2000/svg" xmlns:xlink="http://www.w3.org/1999/xlink" xml:space="preserve" overflow="hidden"><g transform="translate(-3275 -883)"><path d="M3748.93 1091.12C3744.08 1180.55 3728.46 1214.23 3668.87 1210.13 3609.28 1206.02 3577 1141.37 3575.52 1070.1 3574.04 998.816 3601.83 940.641 3663.43 948.109 3725.04 955.573 3753.79 1001.69 3748.93 1091.12ZM3664.47 1047.03C3645.16 1042.68 3644.03 1069.94 3648.88 1089 3653.72 1108.05 3672.2 1107.5 3676.74 1095.29 3681.28 1083.07 3683.78 1051.39 3664.47 1047.03Z" stroke="#FFFFFF" stroke-width="0" stroke-miterlimit="8" fill="#FFFFFF" fill-rule="evenodd"/><path d="M3372.49 1255.96 3305.96 932.85 3361.43 921.962 3427.96 1245.08Z" stroke="#FFFFFF" stroke-width="51.5625" stroke-miterlimit="8" fill="#FFFFFF" fill-rule="evenodd"/><path d="M3316.39 982.963 3305.96 932.605 3401.53 913.962 3411.96 964.32Z" stroke="#FFFFFF" stroke-width="51.5625" stroke-miterlimit="8" fill="#FFFFFF" fill-rule="evenodd"/><path d="M3429.35 1244.96 3419.01 1194.55 3459.09 1186.49C3459.09 1186.49 3540.94 1142.13 3521.6 1058.17 3498 955.784 3414.46 964.353 3414.46 964.353L3373.38 972.206 3362.96 921.436C3362.96 921.436 3400.19 912.286 3418.31 910.534 3440.24 908.411 3547.95 904.913 3577.7 1048.25 3607.16 1190.21 3504.27 1229.87 3484.7 1234.06 3445.21 1242.52 3429.35 1244.96 3429.35 1244.96Z" stroke="#FFFFFF" stroke-width="51.5625" stroke-miterlimit="8" fill="#FFFFFF" fill-rule="evenodd"/><path d="M3372.39 1255.96 3361.96 1204.88 3457.53 1185.96 3467.96 1237.05Z" stroke="#FFFFFF" stroke-width="51.5625" stroke-miterlimit="8" fill="#FFFFFF" fill-rule="evenodd"/><path d="M3778.96 1337 3805.45 1028.96 3891.96 1039.01 3838.85 1343.96Z" stroke="#FFFFFF" stroke-width="51.5625" stroke-miterlimit="8" fill="#FFFFFF" fill-rule="evenodd"/><path d="M3836.86 1362.93 3843.96 1433.96 3756.96 1423.9 3776.63 1355.96Z" stroke="#FFFFFF" stroke-width="51.5625" stroke-miterlimit="8" fill="#FFFFFF" fill-rule="evenodd"/><path d="M3372.49 1255.96 3305.96 932.85 3361.43 921.962 3427.96 1245.08Z" fill="#FF8686" fill-rule="evenodd"/><path d="M3316.39 982.963 3305.96 932.605 3401.53 913.962 3411.96 964.32Z" fill="#FF8686" fill-rule="evenodd"/><path d="M3429.35 1244.96 3419.01 1194.55 3459.09 1186.49C3459.09 1186.49 3540.94 1142.13 3521.6 1058.17 3498 955.784 3414.46 964.353 3414.46 964.353L3373.38 972.206 3362.96 921.436C3362.96 921.436 3400.19 912.286 3418.31 910.534 3440.24 908.411 3547.95 904.913 3577.7 1048.25 3607.16 1190.21 3504.27 1229.87 3484.7 1234.06 3445.21 1242.52 3429.35 1244.96 3429.35 1244.96Z" fill="#FF8686" fill-rule="evenodd"/><path d="M3372.39 1255.96 3361.96 1204.88 3457.53 1185.96 3467.96 1237.05Z" fill="#FF8686" fill-rule="evenodd"/><path d="M3778.96 1337 3805.45 1028.96 3891.96 1039.01 3838.85 1343.96Z" fill="#FFFF00" fill-rule="evenodd"/><path d="M3836.86 1362.93 3843.96 1433.96 3756.96 1423.9 3776.63 1355.96Z" fill="#FFFF00" fill-rule="evenodd"/><path d="M3733.53 1088.4C3729.53 1161.51 3716.7 1189.05 3667.73 1185.69 3618.75 1182.33 3592.22 1129.49 3591.01 1071.21 3589.79 1012.94 3612.63 965.385 3663.26 971.492 3713.88 977.595 3737.52 1015.29 3733.53 1088.4ZM3668.87 1028.69C3637.24 1014.41 3628.73 1062.73 3635.45 1092.84 3642.16 1122.96 3675.92 1135.3 3687.41 1111.88 3698.89 1088.47 3700.49 1042.96 3668.87 1028.69Z" fill="#FF8686" fill-rule="evenodd"/><path d="M3437.42 1477.4 3388.87 1218.07 3461.12 1208.03 3481 1471.35Z" stroke="#FFFFFF" stroke-width="51.5625" stroke-miterlimit="8" fill="#FFFFFF" fill-rule="evenodd"/><path d="M3564.95 1482.74 3609.81 1263.95 3687.95 1283.12 3618.84 1495.95Z" stroke="#FFFFFF" stroke-width="51.5625" stroke-miterlimit="8" fill="#FFFFFF" fill-rule="evenodd"/><path d="M3536.95 1307.52 3551.81 1249.95 3745.95 1297.39 3731.09 1354.95Z" stroke="#FFFFFF" stroke-width="51.5625" stroke-miterlimit="8" fill="#FFFFFF" fill-rule="evenodd"/><path d="M3437.42 1477.4 3388.87 1218.07 3461.12 1208.03 3481 1471.35Z" fill="#A6E1FF" fill-rule="evenodd"/><path d="M3564.95 1482.74 3609.81 1263.95 3687.95 1283.12 3618.84 1495.95Z" fill="#A6E1FF" fill-rule="evenodd"/><path d="M3536.95 1307.52 3551.81 1249.95 3745.95 1297.39 3731.09 1354.95Z" fill="#A6E1FF" fill-rule="evenodd"/></g></svg>